<?xml version="1.0" encoding="UTF-8"?>
<svg id="Layer_1" xmlns="http://www.w3.org/2000/svg" version="1.1" xmlns:xlink="http://www.w3.org/1999/xlink" viewBox="0 0 512 512">
  <!-- Generator: Adobe Illustrator 30.7.0, SVG Export Plug-In . SVG Version: 2.1.4 Build 114)  -->
  <defs>
    <style>
      .st0 {
        fill: #a87927;
      }

      .st1 {
        fill: url(#Gold3);
      }

      .st2 {
        fill: url(#radial-gradient);
      }

      .st3 {
        fill: url(#radial-gradient5);
      }

      .st4 {
        fill: url(#radial-gradient1);
      }

      .st5 {
        fill: url(#Gold);
      }

      .st6 {
        fill: url(#radial-gradient2);
      }

      .st7 {
        fill: url(#radial-gradient4);
      }

      .st8 {
        fill: url(#Gold1);
      }

      .st9 {
        fill: url(#radial-gradient3);
      }

      .st10 {
        fill: url(#Gold2);
      }
    </style>
    <radialGradient id="radial-gradient" cx="6.3" cy="505.8" fx="6.3" fy="505.8" r=".8" gradientTransform="translate(-3066 259078) scale(512 -512)" gradientUnits="userSpaceOnUse">
      <stop offset="0" stop-color="#ff8d7f"/>
      <stop offset=".2" stop-color="#ea6057"/>
      <stop offset=".5" stop-color="#d83731"/>
      <stop offset=".7" stop-color="#ca1816"/>
      <stop offset=".9" stop-color="#c10605"/>
      <stop offset="1" stop-color="#bf0000"/>
    </radialGradient>
    <radialGradient id="radial-gradient1" cx="6.3" cy="505.4" fx="6.3" fy="505.4" r=".8" gradientTransform="translate(-3066 259078) scale(512 -512)" gradientUnits="userSpaceOnUse">
      <stop offset="0" stop-color="#e5e2df"/>
      <stop offset="0" stop-color="#eae8e7"/>
      <stop offset=".3" stop-color="#f6f6f5"/>
      <stop offset=".5" stop-color="#fff"/>
      <stop offset=".7" stop-color="#f6f5f5"/>
      <stop offset="1" stop-color="#e3e1e0"/>
    </radialGradient>
    <radialGradient id="radial-gradient2" cx="432.5" cy="372.3" fx="432.5" fy="372.3" r="119.3" gradientTransform="translate(1689118.2304 5.4818) rotate(90) scale(.5792 4536.3723)" gradientUnits="userSpaceOnUse">
      <stop offset="0" stop-color="#e5e2df"/>
      <stop offset="0" stop-color="#d6d3d0"/>
      <stop offset="0" stop-color="#afacaa"/>
      <stop offset="0" stop-color="#6f6e6d"/>
      <stop offset="0" stop-color="#191919"/>
      <stop offset="0" stop-color="#0f0f0f"/>
      <stop offset=".8" stop-color="#1d1d1d"/>
      <stop offset="1" stop-color="#222"/>
    </radialGradient>
    <radialGradient id="radial-gradient3" cx="361.4" cy="248.8" fx="361.4" fy="248.8" r="119.2" gradientTransform="translate(-5.1 -2.6) scale(1 1)" xlink:href="#radial-gradient2"/>
    <linearGradient id="Gold" x1="187.1" y1="131.7" x2="623.7" y2="440.1" gradientUnits="userSpaceOnUse">
      <stop offset="0" stop-color="#fbc926"/>
      <stop offset=".3" stop-color="#fffbcc"/>
      <stop offset=".3" stop-color="#f8efba"/>
      <stop offset=".4" stop-color="#e7d18d"/>
      <stop offset=".6" stop-color="#cca246"/>
      <stop offset=".6" stop-color="#c3922e"/>
      <stop offset=".9" stop-color="#eed688"/>
      <stop offset="1" stop-color="#fffbcc"/>
    </linearGradient>
    <radialGradient id="radial-gradient4" cx="152.9" cy="248.8" fx="152.9" fy="248.8" r="119.2" gradientTransform="translate(-5.1 -2.6) scale(1 1)" xlink:href="#radial-gradient2"/>
    <linearGradient id="Gold1" data-name="Gold" x1="-25.3" y1="131.7" x2="411.3" y2="440.1" xlink:href="#Gold"/>
    <radialGradient id="radial-gradient5" cx="256" cy="256" fx="256" fy="256" r="76.3" gradientTransform="matrix(1,0,0,1,0,0)" xlink:href="#radial-gradient2"/>
    <linearGradient id="Gold2" data-name="Gold" x1="229.4" y1="123.9" x2="283.8" y2="394" xlink:href="#Gold"/>
    <linearGradient id="Gold3" data-name="Gold" x1="203.8" y1="202.1" x2="331.5" y2="333.9" xlink:href="#Gold"/>
  </defs>
  <rect class="st2" width="512" height="512" rx="112" ry="112"/>
  <path class="st4" d="M512,257.1v142.9c0,61.9-50.1,112-112,112H112c-61.9,0-112-50.1-112-112v-142.9h512Z"/>
  <g>
    <rect class="st6" x="1.5" y="229.1" width="509" height="53.9"/>
    <path d="M509,230.6v50.9H3v-50.9h506ZM512,227.6H0v56.9h512v-56.9h0Z"/>
  </g>
  <g>
    <rect class="st9" x="314.6" y="87.9" width="97" height="336.1" rx="10.7" ry="10.7"/>
    <path d="M400.9,89.4c5.1,0,9.2,4.1,9.2,9.2v314.7c0,5.1-4.1,9.2-9.2,9.2h-75.6c-5.1,0-9.2-4.1-9.2-9.2V98.6c0-5.1,4.1-9.2,9.2-9.2h75.6ZM400.9,86.4h-75.6c-6.7,0-12.2,5.5-12.2,12.2v314.7c0,6.7,5.5,12.2,12.2,12.2h75.6c6.7,0,12.2-5.5,12.2-12.2V98.6c0-6.7-5.5-12.2-12.2-12.2h0Z"/>
  </g>
  <g>
    <rect class="st5" x="325.1" y="97.9" width="76" height="316.2" rx="4" ry="4"/>
    <path class="st0" d="M397.1,99.9c1.1,0,2,.9,2,2v308.2c0,1.1-.9,2-2,2h-68c-1.1,0-2-.9-2-2V101.9c0-1.1.9-2,2-2h68ZM397.1,95.9h-68c-3.3,0-6,2.7-6,6v308.2c0,3.3,2.7,6,6,6h68c3.3,0,6-2.7,6-6V101.9c0-3.3-2.7-6-6-6h0Z"/>
  </g>
  <g>
    <rect class="st7" x="102.2" y="87.9" width="97" height="336.1" rx="10.7" ry="10.7"/>
    <path d="M188.5,89.4c5.1,0,9.2,4.1,9.2,9.2v314.7c0,5.1-4.1,9.2-9.2,9.2h-75.6c-5.1,0-9.2-4.1-9.2-9.2V98.6c0-5.1,4.1-9.2,9.2-9.2h75.6ZM188.5,86.4h-75.6c-6.7,0-12.2,5.5-12.2,12.2v314.7c0,6.7,5.5,12.2,12.2,12.2h75.6c6.7,0,12.2-5.5,12.2-12.2V98.6c0-6.7-5.5-12.2-12.2-12.2h0Z"/>
  </g>
  <g>
    <rect class="st8" x="112.7" y="97.9" width="76" height="316.2" rx="4" ry="4"/>
    <path class="st0" d="M184.7,99.9c1.1,0,2,.9,2,2v308.2c0,1.1-.9,2-2,2h-68c-1.1,0-2-.9-2-2V101.9c0-1.1.9-2,2-2h68ZM184.7,95.9h-68c-3.3,0-6,2.7-6,6v308.2c0,3.3,2.7,6,6,6h68c3.3,0,6-2.7,6-6V101.9c0-3.3-2.7-6-6-6h0Z"/>
  </g>
  <g>
    <path class="st3" d="M256,332.3c-42.1,0-76.3-34.2-76.3-76.3s34.2-76.3,76.3-76.3,76.3,34.2,76.3,76.3-34.2,76.3-76.3,76.3Z"/>
    <path d="M256,181.2c41.3,0,74.8,33.6,74.8,74.8s-33.6,74.8-74.8,74.8-74.8-33.6-74.8-74.8,33.6-74.8,74.8-74.8h0ZM256,178.2c-43,0-77.8,34.8-77.8,77.8s34.8,77.8,77.8,77.8,77.8-34.8,77.8-77.8-34.8-77.8-77.8-77.8h0Z"/>
  </g>
  <g>
    <path class="st10" d="M256,308.5c-28.9,0-52.5-23.5-52.5-52.5s23.5-52.5,52.5-52.5,52.5,23.5,52.5,52.5-23.5,52.5-52.5,52.5Z"/>
    <path class="st0" d="M256,205.5c27.8,0,50.5,22.6,50.5,50.5s-22.6,50.5-50.5,50.5-50.5-22.6-50.5-50.5,22.6-50.5,50.5-50.5h0ZM256,201.5c-30.1,0-54.5,24.4-54.5,54.5s24.4,54.5,54.5,54.5,54.5-24.4,54.5-54.5-24.4-54.5-54.5-54.5h0Z"/>
  </g>
  <g>
    <path class="st1" d="M256,290.6c-19.1,0-34.6-15.5-34.6-34.6s15.5-34.6,34.6-34.6,34.6,15.5,34.6,34.6-15.5,34.6-34.6,34.6Z"/>
    <path class="st0" d="M256,223.4c18,0,32.6,14.6,32.6,32.6s-14.6,32.6-32.6,32.6-32.6-14.6-32.6-32.6,14.6-32.6,32.6-32.6h0ZM256,219.4c-20.2,0-36.6,16.4-36.6,36.6s16.4,36.6,36.6,36.6,36.6-16.4,36.6-36.6-16.4-36.6-36.6-36.6h0Z"/>
  </g>
</svg>